<?xml version="1.0" standalone="no"?><!DOCTYPE svg PUBLIC "-//W3C//DTD SVG 1.1//EN" "http://www.w3.org/Graphics/SVG/1.1/DTD/svg11.dtd"><svg t="1617860600321" class="icon" viewBox="0 0 1024 1024" version="1.1" xmlns="http://www.w3.org/2000/svg" p-id="8053" xmlns:xlink="http://www.w3.org/1999/xlink" width="200" height="200"><defs><style type="text/css"></style></defs><path d="M514.281 17.599c-271.033 0-491.52 220.487-491.52 491.52s220.487 491.52 491.52 491.52 491.52-220.487 491.52-491.52-220.501-491.52-491.52-491.52zM747.37 296.823l-166.775 163.39 148.098 0 0 50.135-189.358 0 0 52.838 122.511 0 0 50.122-122.511 0 0 150.091-50.122 0 0-150.091-122.511 0 0-50.122 122.511 0 0-52.838-189.358 0 0-50.135 148.098 0-166.775-163.39c-9.312-10.158-8.629-26.092 1.53-35.417 10.158-9.312 26.092-8.629 35.417 1.53l196.158 192.171 196.158-192.171c9.312-10.158 25.245-10.841 35.417-1.53 10.144 9.325 10.841 25.259 1.516 35.417z" p-id="8054" fill="#515151"></path></svg>