<?xml version="1.0" standalone="no"?><!DOCTYPE svg PUBLIC "-//W3C//DTD SVG 1.1//EN" "http://www.w3.org/Graphics/SVG/1.1/DTD/svg11.dtd"><svg t="1617792548251" class="icon" viewBox="0 0 1024 1024" version="1.1" xmlns="http://www.w3.org/2000/svg" p-id="5439" xmlns:xlink="http://www.w3.org/1999/xlink" width="200" height="200"><defs><style type="text/css"></style></defs><path d="M88.85546667 570.97066667c0-29.16266667 23.48373333-52.75626667 53.41226666-52.75626666h104.7488c29.4912 0 53.4112 24.02986667 53.4112 52.75733332v317.73866667c0 29.1648-23.48373333 52.75733333-53.4112 52.75733334h-104.7488c-29.4912 0-53.41226667-24.02986667-53.41226666-52.75733334v-317.73866667z m634.82666666-211.3536c0-29.27253333 23.48266667-53.08373333 53.4112-53.08373333h104.74773334c29.4912 0 53.41226667 24.13866667 53.41226666 53.08373333V888.384c0 29.27253333-23.48373333 53.08373333-53.41226666 53.08373334h-104.74773334c-29.4912 0-53.41226667-24.13866667-53.41226666-53.08373334V359.616z m-327.3536-226.64533334c0-29.81866667 23.92106667-53.95733333 54.39573334-53.95733332H557.54666667c30.03733333 0 54.39466667 24.02986667 54.39466666 53.95733332v754.64746667c0 29.81866667-23.92106667 53.95733333-54.39466666 53.95733333H450.72426667c-30.03733333 0-54.39573333-24.02986667-54.39573334-53.95733333V132.97066667z" p-id="5440" fill="#515151"></path></svg>